<?xml version="1.0" standalone="no"?>
<!DOCTYPE svg PUBLIC "-//W3C//DTD SVG 20010904//EN"
 "http://www.w3.org/TR/2001/REC-SVG-20010904/DTD/svg10.dtd">
<svg version="1.0" xmlns="http://www.w3.org/2000/svg"
 width="1236.000000pt" height="1280.000000pt" viewBox="0 0 1236.000000 1280.000000"
 preserveAspectRatio="xMidYMid meet">
<metadata>
Created by potrace 1.15, written by Peter Selinger 2001-2017
</metadata>
<g transform="translate(0.000000,1280.000000) scale(0.100000,-0.100000)"
fill="#000000" stroke="none">
<path d="M6016 12785 c-341 -71 -638 -322 -750 -633 -58 -162 -71 -351 -35
-525 41 -201 114 -329 296 -518 62 -65 113 -124 113 -133 0 -8 -7 -21 -15 -30
-36 -35 -404 -307 -875 -646 -685 -492 -863 -629 -1137 -873 -440 -394 -733
-816 -916 -1322 -97 -267 -122 -435 -121 -825 0 -327 6 -382 69 -600 160 -557
463 -1010 900 -1347 72 -55 139 -110 149 -122 24 -26 36 35 -156 -741 -169
-685 -188 -772 -188 -875 1 -148 45 -199 278 -318 508 -260 1037 -451 1545
-558 59 -12 107 -25 107 -28 0 -3 -45 -32 -99 -64 -214 -125 -405 -179 -781
-219 -81 -8 -380 -12 -1005 -13 -978 -1 -965 0 -1286 -65 -659 -135 -1242
-398 -1754 -791 -227 -175 -333 -290 -350 -382 -14 -72 -1 -98 114 -229 216
-246 809 -825 920 -899 26 -17 58 -29 76 -29 48 0 138 50 296 164 262 191 514
332 774 434 380 149 695 194 1680 242 889 43 1232 91 1620 224 168 57 277 105
508 224 l188 96 232 -116 c258 -129 404 -190 582 -241 367 -107 690 -147 1500
-187 739 -36 1017 -63 1305 -126 373 -81 766 -268 1146 -544 171 -125 229
-158 285 -166 39 -5 50 -2 101 32 32 22 118 95 193 163 202 185 799 793 818
833 20 42 22 114 5 172 -15 53 -149 188 -303 307 -536 414 -1069 661 -1742
808 -353 77 -486 85 -1308 77 -719 -7 -968 0 -1210 35 -278 40 -466 106 -665
234 l-45 29 60 13 c399 86 666 166 1043 315 232 92 662 301 738 358 76 57 99
111 98 225 -2 107 -17 179 -154 725 -148 588 -209 850 -203 866 5 14 72 70
228 190 377 290 698 790 840 1308 54 199 65 299 65 587 -1 493 -55 727 -266
1154 -165 335 -348 582 -645 870 -278 270 -530 468 -1299 1020 -464 333 -827
602 -850 630 -17 21 2 48 119 170 158 163 221 267 278 454 23 76 26 103 27
231 0 171 -19 260 -88 406 -59 124 -115 205 -205 294 -123 122 -288 218 -446
260 -105 28 -302 35 -399 15z"/>
</g>
</svg>
